<?xml version="1.0" encoding="UTF-8" standalone="no"?>
<!DOCTYPE svg PUBLIC "-//W3C//DTD SVG 1.1//EN" "http://www.w3.org/Graphics/SVG/1.1/DTD/svg11.dtd">
<svg width="100%" height="100%" viewBox="0 0 150 150" version="1.1" xmlns="http://www.w3.org/2000/svg" xmlns:xlink="http://www.w3.org/1999/xlink" xml:space="preserve" style="fill-rule:evenodd;clip-rule:evenodd;stroke-linejoin:round;stroke-miterlimit:1.41421;">
    <g transform="matrix(1,0,0,1,-325,-225)">
        <g transform="matrix(1.39016,0,0,1.972,0,836.419)">
            <g id="logo" transform="matrix(0.330719,0,0,0.233141,66.5163,-303.187)">
                <g id="Head--o-">
                    <g id="Background" transform="matrix(1.20566,0,0,1.20566,-96.6839,-95.3868)">
                        <circle cx="635" cy="190" r="128" style="fill:white;"/>
                    </g>
                    <g id="Head--o-1" transform="matrix(1.20766,0,0,1.20766,-97.9558,-95.7673)">
                        <path d="M635.436,54.921C637.75,54.932 640.062,54.994 642.373,55.118C647.208,55.379 652.029,55.898 656.808,56.676C662.74,57.641 668.607,59.003 674.356,60.754C679.756,62.399 685.05,64.385 690.2,66.695C697.65,70.038 704.793,74.062 711.517,78.694C717.417,82.76 722.994,87.294 728.18,92.238C734.047,97.832 739.413,103.952 744.191,110.501C748.272,116.096 751.924,122.003 755.101,128.156C758.121,134.004 760.712,140.074 762.842,146.302C764.915,152.361 766.553,158.569 767.74,164.863C770.471,179.345 770.813,194.278 768.769,208.873C767.817,215.667 766.344,222.388 764.366,228.958C762.344,235.674 759.793,242.23 756.747,248.548C753.441,255.404 749.553,261.978 745.141,268.181C740.206,275.118 734.616,281.589 728.472,287.482C722.323,293.38 715.62,298.697 708.476,303.341C701.619,307.798 694.355,311.631 686.804,314.773C678.612,318.181 670.082,320.774 661.378,322.5C652.697,324.221 643.849,325.08 635,325.08C626.151,325.08 617.303,324.221 608.622,322.5C599.918,320.774 591.388,318.181 583.196,314.773C575.645,311.631 568.381,307.798 561.524,303.341C554.38,298.697 547.677,293.38 541.528,287.482C535.383,281.589 529.794,275.118 524.859,268.181C520.447,261.978 516.559,255.404 513.253,248.548C510.086,241.98 507.455,235.155 505.396,228.161C503.537,221.845 502.145,215.393 501.231,208.873C500.376,202.767 499.94,196.602 499.921,190.436C499.894,181.863 500.672,173.288 502.26,164.863C503.447,158.569 505.085,152.362 507.158,146.302C509.288,140.074 511.879,134.004 514.898,128.156C518.076,122.003 521.728,116.096 525.809,110.501C530.587,103.952 535.953,97.832 541.82,92.238C547.595,86.732 553.854,81.736 560.504,77.328C566.633,73.267 573.092,69.705 579.8,66.695C584.95,64.385 590.244,62.399 595.644,60.754C601.393,59.003 607.26,57.641 613.192,56.676C617.971,55.898 622.792,55.379 627.627,55.118C629.938,54.994 632.25,54.932 634.564,54.921C634.855,54.92 635.145,54.92 635.436,54.921ZM634.609,69.08C632.535,69.091 630.461,69.146 628.39,69.258C624.061,69.491 619.744,69.956 615.465,70.652C610.159,71.515 604.912,72.733 599.77,74.3C594.94,75.771 590.203,77.547 585.597,79.614C579.593,82.308 573.812,85.496 568.327,89.131C562.37,93.079 556.764,97.555 551.591,102.486C546.335,107.497 541.528,112.979 537.248,118.846C533.594,123.855 530.324,129.143 527.48,134.652C524.779,139.884 522.461,145.314 520.555,150.885C518.742,156.186 517.301,161.614 516.245,167.116C514.799,174.653 514.08,182.326 514.08,190C514.08,195.654 514.47,201.309 515.254,206.908C516.071,212.741 517.317,218.513 518.98,224.162C520.821,230.418 523.175,236.523 526.007,242.398C528.967,248.535 532.448,254.421 536.398,259.973C540.818,266.188 545.825,271.984 551.329,277.263C556.837,282.546 562.842,287.309 569.241,291.469C575.377,295.458 581.877,298.888 588.635,301.699C595.962,304.748 603.591,307.067 611.376,308.611C619.15,310.152 627.074,310.92 635,310.92C642.926,310.92 650.85,310.152 658.624,308.611C666.409,307.067 674.038,304.748 681.365,301.699C688.123,298.888 694.623,295.458 700.759,291.469C707.158,287.309 713.163,282.546 718.671,277.263C724.175,271.984 729.182,266.188 733.602,259.973C737.552,254.421 741.033,248.535 743.993,242.398C746.717,236.747 748.999,230.882 750.808,224.875C752.578,218.999 753.894,212.986 754.746,206.909C755.53,201.309 755.92,195.654 755.92,190C755.92,182.2 755.177,174.402 753.683,166.746C752.635,161.37 751.218,156.067 749.445,150.885C747.539,145.314 745.222,139.884 742.52,134.652C739.676,129.143 736.406,123.855 732.752,118.846C728.472,112.979 723.665,107.497 718.409,102.486C713.763,98.057 708.768,93.996 703.483,90.354C697.465,86.208 691.071,82.606 684.403,79.614C679.797,77.547 675.06,75.771 670.231,74.3C665.088,72.733 659.841,71.515 654.535,70.652C650.256,69.956 645.939,69.491 641.61,69.258C639.539,69.146 637.465,69.091 635.391,69.08C635.13,69.08 634.87,69.08 634.609,69.08Z" style="fill:rgb(0,0,238);fill-rule:nonzero;"/>
                    </g>
                </g>
                <g id="Face--.z-">
                    <g id="Nose--z-" transform="matrix(2.17509,0,0,2.17509,505.776,-464.459)">
                        <path d="M64.61,298.124L98.122,298.124L98.122,305.999L56.678,305.999L56.678,305.988L50.092,305.988L90.538,243.982L99.927,243.982L64.61,298.124Z" style="fill:rgb(0,0,238);"/>
                    </g>
                    <g id="Eye--.-" transform="matrix(0.907204,0,0,1.46756,577.965,33.3037)">
                        <rect x="44.802" y="22.45" width="18.853" height="18.853" style="fill:rgb(0,0,238);"/>
                    </g>
                </g>
            </g>
        </g>
    </g>
</svg>
