<?xml version="1.0" encoding="UTF-8" standalone="no"?><!DOCTYPE svg PUBLIC "-//W3C//DTD SVG 1.1//EN" "http://www.w3.org/Graphics/SVG/1.1/DTD/svg11.dtd"><svg width="100%" height="100%" viewBox="0 0 150 150" version="1.1" xmlns="http://www.w3.org/2000/svg" xmlns:xlink="http://www.w3.org/1999/xlink" xml:space="preserve" style="fill-rule:evenodd;clip-rule:evenodd;stroke-linejoin:round;stroke-miterlimit:1.41421;"><g id="logo"><g id="Head--o-"><path id="Head--o-1" d="M75.206,0.001c1.284,0.006 2.568,0.04 3.851,0.11c2.685,0.144 5.361,0.433 8.015,0.864c3.293,0.536 6.551,1.292 9.743,2.265c2.998,0.913 5.938,2.015 8.797,3.298c4.136,1.856 8.102,4.09 11.835,6.662c3.276,2.258 6.373,4.775 9.252,7.52c3.258,3.106 6.237,6.504 8.89,10.14c2.266,3.107 4.294,6.386 6.058,9.802c1.676,3.248 3.114,6.618 4.297,10.076c1.151,3.364 2.061,6.811 2.72,10.305c1.516,8.041 1.706,16.332 0.571,24.436c-0.529,3.772 -1.346,7.504 -2.444,11.151c-1.123,3.729 -2.539,7.369 -4.231,10.877c-1.835,3.807 -3.994,7.457 -6.444,10.901c-2.74,3.852 -5.843,7.444 -9.255,10.716c-3.414,3.275 -7.136,6.227 -11.102,8.805c-3.807,2.475 -7.84,4.603 -12.033,6.348c-4.548,1.892 -9.284,3.332 -14.117,4.29c-4.82,0.955 -9.732,1.432 -14.645,1.432c-4.914,0 -9.826,-0.477 -14.646,-1.432c-4.833,-0.958 -9.569,-2.398 -14.117,-4.29c-4.193,-1.745 -8.226,-3.873 -12.033,-6.348c-3.966,-2.578 -7.688,-5.53 -11.102,-8.805c-3.412,-3.272 -6.515,-6.864 -9.255,-10.716c-2.45,-3.444 -4.609,-7.094 -6.444,-10.901c-1.758,-3.646 -3.219,-7.436 -4.362,-11.319c-1.033,-3.507 -1.806,-7.089 -2.313,-10.709c-0.475,-3.391 -0.717,-6.813 -0.728,-10.237c-0.015,-4.76 0.417,-9.521 1.299,-14.199c0.659,-3.494 1.569,-6.941 2.72,-10.305c1.182,-3.458 2.621,-6.828 4.297,-10.075c1.764,-3.417 3.792,-6.696 6.058,-9.803c2.653,-3.636 5.632,-7.034 8.89,-10.14c3.206,-3.057 6.681,-5.831 10.374,-8.278c3.402,-2.255 6.989,-4.233 10.713,-5.904c2.859,-1.283 5.799,-2.385 8.797,-3.298c3.192,-0.973 6.45,-1.729 9.743,-2.265c2.654,-0.431 5.33,-0.72 8.015,-0.864c1.283,-0.07 2.567,-0.104 3.851,-0.11c0.162,0 0.323,0 0.485,0Zm-0.46,7.862c-1.151,0.005 -2.302,0.036 -3.452,0.098c-2.404,0.13 -4.801,0.388 -7.177,0.774c-2.946,0.479 -5.859,1.156 -8.714,2.025c-2.682,0.817 -5.312,1.803 -7.869,2.951c-3.334,1.496 -6.544,3.266 -9.589,5.284c-3.307,2.192 -6.42,4.677 -9.292,7.415c-2.918,2.783 -5.587,5.826 -7.964,9.084c-2.028,2.781 -3.844,5.717 -5.423,8.775c-1.5,2.905 -2.787,5.92 -3.845,9.013c-1.007,2.944 -1.807,5.957 -2.393,9.012c-0.803,4.185 -1.202,8.445 -1.202,12.706c0,3.139 0.216,6.279 0.652,9.388c0.454,3.238 1.145,6.443 2.068,9.579c1.023,3.474 2.33,6.864 3.902,10.125c1.644,3.408 3.576,6.676 5.769,9.759c2.455,3.45 5.234,6.668 8.29,9.599c3.059,2.934 6.393,5.578 9.946,7.888c3.407,2.214 7.015,4.119 10.767,5.68c4.069,1.692 8.305,2.98 12.627,3.837c4.316,0.856 8.716,1.283 13.117,1.283c4.4,0 8.8,-0.427 13.116,-1.283c4.322,-0.857 8.558,-2.145 12.627,-3.837c3.752,-1.561 7.36,-3.466 10.768,-5.68c3.552,-2.31 6.886,-4.954 9.945,-7.888c3.055,-2.931 5.835,-6.149 8.29,-9.599c2.193,-3.083 4.125,-6.351 5.769,-9.759c1.513,-3.137 2.779,-6.393 3.784,-9.729c0.982,-3.262 1.713,-6.601 2.186,-9.975c0.436,-3.109 0.652,-6.249 0.652,-9.388c0,-4.331 -0.413,-8.661 -1.242,-12.911c-0.582,-2.985 -1.369,-5.929 -2.353,-8.806c-1.058,-3.094 -2.345,-6.109 -3.845,-9.013c-1.579,-3.059 -3.395,-5.995 -5.423,-8.776c-2.377,-3.258 -5.046,-6.301 -7.964,-9.084c-2.579,-2.459 -5.353,-4.714 -8.287,-6.736c-3.342,-2.302 -6.891,-4.302 -10.594,-5.963c-2.557,-1.148 -5.187,-2.134 -7.869,-2.951c-2.855,-0.869 -5.768,-1.546 -8.714,-2.025c-2.376,-0.386 -4.773,-0.644 -7.176,-0.774c-1.15,-0.062 -2.302,-0.093 -3.453,-0.098c-0.145,-0.001 -0.29,-0.001 -0.435,0Z" style="fill:#fff;fill-rule:nonzero;"/></g><g id="Face--.z-"><path id="Nose--z-" d="M64.574,98.125l33.512,0l0,7.874l-41.444,0l0,-0.01l-6.585,0l40.445,-62.007l9.389,0l-35.317,54.143Z" style="fill:#fff;"/><rect id="Eye--.-" x="51.839" y="43.995" width="7.864" height="12.721" style="fill:#fff;"/></g></g></svg>